<svg width="500" height="267" viewBox="0 0 500 267" fill="none" xmlns="http://www.w3.org/2000/svg">
    <path
        d="M50.0653 206.2H78.5452V210.68H55.1853V227.192H76.1133V231.608H55.1853V251H50.0653V206.2ZM105.392 205.88C108.634 205.88 111.664 206.456 114.48 207.608C117.338 208.76 119.834 210.381 121.968 212.472C124.101 214.563 125.765 216.973 126.96 219.704C128.197 222.435 128.816 225.379 128.816 228.536C128.816 231.693 128.197 234.659 126.96 237.432C125.765 240.205 124.101 242.637 121.968 244.728C119.834 246.819 117.338 248.461 114.48 249.656C111.664 250.808 108.634 251.384 105.392 251.384C102.106 251.384 99.0344 250.808 96.1758 249.656C93.3598 248.461 90.8851 246.819 88.7517 244.728C86.6184 242.637 84.9331 240.205 83.6958 237.432C82.5011 234.659 81.9038 231.693 81.9038 228.536C81.9038 225.379 82.5011 222.435 83.6958 219.704C84.9331 216.931 86.6184 214.52 88.7517 212.472C90.8851 210.381 93.3598 208.76 96.1758 207.608C99.0344 206.456 102.106 205.88 105.392 205.88ZM105.392 210.232C102.874 210.232 100.506 210.701 98.2878 211.64C96.1118 212.579 94.1704 213.901 92.4638 215.608C90.7998 217.272 89.4771 219.213 88.4958 221.432C87.5571 223.651 87.0878 226.019 87.0878 228.536C87.0878 231.096 87.5571 233.485 88.4958 235.704C89.4771 237.923 90.8211 239.885 92.5278 241.592C94.2344 243.299 96.1758 244.621 98.3518 245.56C100.57 246.499 102.917 246.968 105.392 246.968C107.909 246.968 110.256 246.499 112.432 245.56C114.65 244.621 116.592 243.299 118.256 241.592C119.92 239.885 121.221 237.923 122.16 235.704C123.098 233.485 123.568 231.096 123.568 228.536C123.568 226.019 123.098 223.651 122.16 221.432C121.221 219.213 119.92 217.272 118.256 215.608C116.592 213.901 114.65 212.579 112.432 211.64C110.256 210.701 107.909 210.232 105.392 210.232ZM131.61 206.2H165.978V210.68H151.322V251H146.202V210.68H131.61V206.2ZM189.767 205.88C193.009 205.88 196.039 206.456 198.855 207.608C201.713 208.76 204.209 210.381 206.343 212.472C208.476 214.563 210.14 216.973 211.335 219.704C212.572 222.435 213.191 225.379 213.191 228.536C213.191 231.693 212.572 234.659 211.335 237.432C210.14 240.205 208.476 242.637 206.343 244.728C204.209 246.819 201.713 248.461 198.855 249.656C196.039 250.808 193.009 251.384 189.767 251.384C186.481 251.384 183.409 250.808 180.551 249.656C177.735 248.461 175.26 246.819 173.127 244.728C170.993 242.637 169.308 240.205 168.071 237.432C166.876 234.659 166.279 231.693 166.279 228.536C166.279 225.379 166.876 222.435 168.071 219.704C169.308 216.931 170.993 214.52 173.127 212.472C175.26 210.381 177.735 208.76 180.551 207.608C183.409 206.456 186.481 205.88 189.767 205.88ZM189.767 210.232C187.249 210.232 184.881 210.701 182.663 211.64C180.487 212.579 178.545 213.901 176.839 215.608C175.175 217.272 173.852 219.213 172.871 221.432C171.932 223.651 171.463 226.019 171.463 228.536C171.463 231.096 171.932 233.485 172.871 235.704C173.852 237.923 175.196 239.885 176.903 241.592C178.609 243.299 180.551 244.621 182.727 245.56C184.945 246.499 187.292 246.968 189.767 246.968C192.284 246.968 194.631 246.499 196.807 245.56C199.025 244.621 200.967 243.299 202.631 241.592C204.295 239.885 205.596 237.923 206.535 235.704C207.473 233.485 207.943 231.096 207.943 228.536C207.943 226.019 207.473 223.651 206.535 221.432C205.596 219.213 204.295 217.272 202.631 215.608C200.967 213.901 199.025 212.579 196.807 211.64C194.631 210.701 192.284 210.232 189.767 210.232ZM254.4 215.48C252.608 213.816 250.518 212.515 248.128 211.576C245.782 210.637 243.35 210.168 240.832 210.168C238.272 210.168 235.883 210.659 233.664 211.64C231.446 212.579 229.483 213.901 227.776 215.608C226.07 217.272 224.747 219.213 223.808 221.432C222.87 223.608 222.4 225.976 222.4 228.536C222.4 231.096 222.87 233.485 223.808 235.704C224.747 237.923 226.07 239.885 227.776 241.592C229.483 243.299 231.446 244.643 233.664 245.624C235.883 246.563 238.294 247.032 240.896 247.032C243.243 247.032 245.59 246.584 247.936 245.688C250.283 244.749 252.374 243.512 254.208 241.976L257.216 245.496C255.766 246.648 254.123 247.672 252.288 248.568C250.454 249.464 248.534 250.168 246.528 250.68C244.566 251.149 242.582 251.384 240.576 251.384C237.291 251.384 234.24 250.808 231.424 249.656C228.608 248.461 226.134 246.819 224 244.728C221.867 242.637 220.203 240.205 219.008 237.432C217.814 234.659 217.216 231.693 217.216 228.536C217.216 225.379 217.814 222.435 219.008 219.704C220.246 216.973 221.931 214.563 224.064 212.472C226.24 210.381 228.758 208.76 231.616 207.608C234.475 206.456 237.547 205.88 240.832 205.88C242.88 205.88 244.886 206.136 246.848 206.648C248.854 207.117 250.731 207.8 252.48 208.696C254.272 209.592 255.894 210.68 257.344 211.96L254.4 215.48ZM252.672 229.112H257.216V245.496H252.672V229.112ZM286.652 206.2C292.284 206.2 296.636 207.523 299.708 210.168C302.78 212.771 304.316 216.44 304.316 221.176C304.316 226.083 302.78 229.901 299.708 232.632C296.636 235.32 292.284 236.664 286.652 236.664H274.748V251H269.628V206.2H286.652ZM286.652 232.248C290.705 232.248 293.841 231.331 296.06 229.496C298.321 227.619 299.452 224.888 299.452 221.304C299.452 217.805 298.321 215.16 296.06 213.368C293.841 211.576 290.705 210.68 286.652 210.68H274.748V232.248H286.652ZM288.188 234.552H293.372L304.764 251H298.94L288.188 234.552ZM329.446 206.2H334.694L354.726 251H349.222L331.942 211.448L314.79 251H309.414L329.446 206.2ZM318.246 234.936H345.446V239.352H318.246V234.936ZM361.815 206.2H390.295V210.68H366.935V227.192H387.863V231.608H366.935V251H361.815V206.2ZM397.878 206.2H402.998V251H397.878V206.2ZM430.133 206.2H435.381L455.413 251H449.909L432.629 211.448L415.477 251H410.101L430.133 206.2ZM418.933 234.936H446.133V239.352H418.933V234.936Z"
        fill="#151515" />
    <path
        d="M159.772 193.84C151.58 193.84 143.217 193.072 134.684 191.536C126.151 190 117.788 187.867 109.596 185.136C101.575 182.235 94.0653 178.907 87.068 175.152L92.188 115.504H96.284L109.596 151.6C112.156 159.963 115.996 167.045 121.116 172.848C126.407 178.48 132.636 182.747 139.804 185.648C147.143 188.549 155.079 190 163.612 190C171.292 190 177.777 188.976 183.068 186.928C188.529 184.709 192.711 181.637 195.612 177.712C198.513 173.787 199.964 169.093 199.964 163.632C199.964 157.488 198.428 152.027 195.356 147.248C192.284 142.299 187.079 137.349 179.74 132.4C172.572 127.28 162.844 121.819 150.556 116.016C134.855 107.824 122.396 100.485 113.18 94C104.135 87.5147 97.6493 81.1147 93.724 74.8C89.7987 68.3147 87.836 61.4027 87.836 54.064C87.836 46.896 89.4573 40.3253 92.7 34.352C96.1133 28.3787 100.977 23.1733 107.292 18.736C113.607 14.2987 121.201 10.8853 130.076 8.49599C138.951 6.10665 148.849 4.91199 159.772 4.91199C169.671 4.91199 178.887 5.76532 187.42 7.47198C196.124 9.17866 203.975 11.4827 210.972 14.384C218.14 17.2853 224.113 20.6133 228.892 24.368L219.42 80.432H215.324L209.18 57.392C205.767 45.7867 201.585 36.4853 196.636 29.488C191.687 22.32 185.884 17.1147 179.228 13.872C172.743 10.4587 165.148 8.752 156.444 8.752C147.911 8.752 140.572 9.776 134.428 11.824C128.455 13.872 123.847 16.8587 120.604 20.784C117.532 24.7093 115.996 29.4027 115.996 34.864C115.996 40.496 117.788 45.872 121.372 50.992C124.956 55.9413 131.015 61.232 139.548 66.864C148.081 72.3253 159.601 78.5547 174.108 85.552C185.543 90.8427 195.015 95.8773 202.524 100.656C210.204 105.264 216.348 109.872 220.956 114.48C225.735 119.088 229.148 123.781 231.196 128.56C233.244 133.339 234.268 138.629 234.268 144.432C234.268 151.6 232.817 157.915 229.916 163.376C227.185 168.667 223.431 173.275 218.652 177.2C213.873 180.955 208.327 184.112 202.012 186.672C195.697 189.061 188.871 190.853 181.532 192.048C174.364 193.243 167.111 193.84 159.772 193.84Z"
        fill="#151515" />
    <path
        d="M404.512 193.84C399.051 193.84 393.845 192.475 388.896 189.744C384.117 187.013 379.509 182.917 375.072 177.456C370.805 171.995 366.624 165.168 362.528 156.976C357.749 146.907 352.629 137.179 347.168 127.792C341.707 118.235 335.733 109.189 329.248 100.656H308.256V184.368L323.104 187.44V190H255.776V187.44L270.624 184.368V14.384L255.776 11.312V8.752H351.008C364.491 8.752 375.84 10.3733 385.056 13.616C394.443 16.688 401.44 21.3813 406.048 27.696C410.656 34.0107 412.96 41.9467 412.96 51.504C412.96 60.5493 410.059 68.4853 404.256 75.312C398.624 82.1387 390.261 87.5147 379.168 91.44C368.075 95.3653 354.507 97.6693 338.464 98.352V100.4C345.291 100.741 351.435 101.765 356.896 103.472C362.357 105.008 367.307 107.227 371.744 110.128C376.181 113.029 380.021 116.699 383.264 121.136C386.677 125.403 389.664 130.437 392.224 136.24C396.661 146.48 400.587 155.013 404 161.84C407.413 168.667 410.4 173.957 412.96 177.712C415.691 181.296 417.995 183.429 419.872 184.112C421.749 184.965 423.541 185.136 425.248 184.624V187.184C423.2 188.891 420.896 190.171 418.336 191.024C415.947 192.048 413.472 192.731 410.912 193.072C408.523 193.584 406.389 193.84 404.512 193.84ZM327.2 95.28C335.051 95.28 342.048 94.3413 348.192 92.464C354.336 90.416 359.541 87.6 363.808 84.016C368.075 80.2613 371.317 75.7387 373.536 70.448C375.755 65.1573 376.864 59.0987 376.864 52.272C376.864 43.7387 375.328 36.5707 372.256 30.768C369.184 24.9653 364.661 20.528 358.688 17.456C352.885 14.384 345.717 12.848 337.184 12.848C331.04 12.848 325.579 12.9333 320.8 13.104C316.192 13.2747 312.011 13.7013 308.256 14.384V94C310.304 94.512 312.693 94.8533 315.424 95.024C318.325 95.1947 322.251 95.28 327.2 95.28Z"
        fill="#EB7F00" />
</svg>